HIERARCHY
ROOT Hips
{
	OFFSET 0.00000 0.00000 0.00000
	CHANNELS 6 Xposition Yposition Zposition Zrotation Yrotation Xrotation 
	JOINT LHipJoint
	{
		OFFSET 0 0 0
		CHANNELS 3 Zrotation Yrotation Xrotation
		JOINT LeftUpLeg
		{
			OFFSET 1.38691 -1.89057 0.78360
			CHANNELS 3 Zrotation Yrotation Xrotation
			JOINT LeftLeg
			{
				OFFSET 2.59731 -7.13606 0.00000
				CHANNELS 3 Zrotation Yrotation Xrotation
				JOINT LeftFoot
				{
					OFFSET 2.70078 -7.42033 0.00000
					CHANNELS 3 Zrotation Yrotation Xrotation
					JOINT LeftToeBase
					{
						OFFSET 0.16751 -0.46024 2.68862
						CHANNELS 3 Zrotation Yrotation Xrotation
						End Site
						{
							OFFSET 0.00000 -0.00000 1.37057
						}
					}
				}
			}
		}
	}
	JOINT RHipJoint
	{
		OFFSET 0 0 0
		CHANNELS 3 Zrotation Yrotation Xrotation
		JOINT RightUpLeg
		{
			OFFSET -1.38190 -1.89056 0.78359
			CHANNELS 3 Zrotation Yrotation Xrotation
			JOINT RightLeg
			{
				OFFSET -2.57785 -7.08258 0.00000
				CHANNELS 3 Zrotation Yrotation Xrotation
				JOINT RightFoot
				{
					OFFSET -2.77908 -7.63547 0.00000
					CHANNELS 3 Zrotation Yrotation Xrotation
					JOINT RightToeBase
					{
						OFFSET -0.17921 -0.49237 2.62360
						CHANNELS 3 Zrotation Yrotation Xrotation
						End Site
						{
							OFFSET -0.00000 -0.00000 1.34085
						}
					}
				}
			}
		}
	}
	JOINT LowerBack
	{
		OFFSET 0 0 0
		CHANNELS 3 Zrotation Yrotation Xrotation
		JOINT Spine
		{
			OFFSET -0.10749 2.04110 -0.22549
			CHANNELS 3 Zrotation Yrotation Xrotation
			JOINT Spine1
			{
				OFFSET 0.01213 2.05840 0.00691
				CHANNELS 3 Zrotation Yrotation Xrotation
				JOINT Neck
				{
					OFFSET 0 0 0
					CHANNELS 3 Zrotation Yrotation Xrotation
					JOINT Neck1
					{
						OFFSET 0.06585 1.81215 0.35449
						CHANNELS 3 Zrotation Yrotation Xrotation
						JOINT Head
						{
							OFFSET -0.04315 1.87555 -0.27307
							CHANNELS 3 Zrotation Yrotation Xrotation
							End Site
							{
								OFFSET -0.01775 1.89740 -0.13294
							}
						}
					}
				}
				JOINT LeftShoulder
				{
					OFFSET 0 0 0
					CHANNELS 3 Zrotation Yrotation Xrotation
					JOINT LeftArm
					{
						OFFSET 2.98012 1.63606 0.28888
						CHANNELS 3 Zrotation Yrotation Xrotation
						JOINT LeftForeArm
						{
							OFFSET 5.59864 -0.00000 -0.00000
							CHANNELS 3 Zrotation Yrotation Xrotation
							JOINT LeftHand
							{
								OFFSET 3.59542 -0.00000 -0.00000
								CHANNELS 3 Zrotation Yrotation Xrotation
								JOINT LeftFingerBase
								{
									OFFSET 0 0 0
									CHANNELS 3 Zrotation Yrotation Xrotation
									JOINT LeftHandIndex1
									{
										OFFSET 0.57201 -0.00000 -0.00000
										CHANNELS 3 Zrotation Yrotation Xrotation
										End Site
										{
											OFFSET 0.46117 -0.00000 -0.00000
										}
									}
								}
								JOINT LThumb
								{
									OFFSET 0 0 0
									CHANNELS 3 Zrotation Yrotation Xrotation
									End Site
									{
										OFFSET 0.46821 -0.00000 0.46821
									}
								}
							}
						}
					}
				}
				JOINT RightShoulder
				{
					OFFSET 0 0 0
					CHANNELS 3 Zrotation Yrotation Xrotation
					JOINT RightArm
					{
						OFFSET -3.08694 1.53706 0.36335
						CHANNELS 3 Zrotation Yrotation Xrotation
						JOINT RightForeArm
						{
							OFFSET -5.80940 -0.00000 -0.00000
							CHANNELS 3 Zrotation Yrotation Xrotation
							JOINT RightHand
							{
								OFFSET -3.66953 -0.00000 -0.00000
								CHANNELS 3 Zrotation Yrotation Xrotation
								JOINT RightFingerBase
								{
									OFFSET 0 0 0
									CHANNELS 3 Zrotation Yrotation Xrotation
									JOINT RightHandIndex1
									{
										OFFSET -0.57843 -0.00000 -0.00000
										CHANNELS 3 Zrotation Yrotation Xrotation
										End Site
										{
											OFFSET -0.46635 -0.00000 -0.00000
										}
									}
								}
								JOINT RThumb
								{
									OFFSET 0 0 0
									CHANNELS 3 Zrotation Yrotation Xrotation
									End Site
									{
										OFFSET -0.47347 -0.00000 0.47347
									}
								}
							}
						}
					}
				}
			}
		}
	}
}
MOTION
Frames: 5
Frame Time: .0083333
-8.9274 19.5601 10.8212 3.7246 108.7240 9.2746 0.0000 0.0000 0.0000 -13.4353 -20.5751 -8.4697 5.7424 14.1740 43.9389 4.2497 -8.5946 -37.6347 2.1847 -9.2406 -26.5509 0.0000 0.0000 0.0000 16.7910 8.6224 -7.4786 -4.3612 -12.6261 37.9845 -0.2547 21.4553 -17.0095 -0.1589 -2.5684 7.0794 -6.3232 -1.7254 7.8877 -1.0651 -2.9687 -1.4723 2.8028 -1.2559 -5.7140 -3.3200 -7.2868 -9.4123 -0.4136 -6.8622 46.0072 -0.5006 -2.3568 19.4683 0.0000 0.0000 0.0000 -75.5504 6.5449 32.4841 64.3709 -57.3664 -38.0008 -0.0000 0.0000 -26.8952 21.5936 18.5019 7.1589 -7.1250 0.0000 -0.0000 -6.4787 49.6630 -0.7476 0.0000 0.0000 0.0000 70.6811 -15.8944 5.9260 -26.6213 37.8157 -9.2660 0.0000 -0.0000 -14.2746 -21.5391 -22.7127 8.6650 7.1250 -0.0000 -0.0000 7.8787 -54.0355 -1.7582
-8.8394 19.5444 11.1446 3.7242 108.9870 9.1060 0.0000 0.0000 0.0000 -13.5122 -20.6808 -8.4534 5.8202 14.2518 44.2556 4.2288 -8.5368 -37.5414 2.1913 -9.2536 -26.5918 0.0000 0.0000 0.0000 16.7397 8.5291 -7.7417 -4.5240 -12.8268 38.7235 -0.2360 21.3931 -16.8348 -0.1597 -2.5748 7.0970 -6.3208 -1.6862 7.9457 -1.0518 -2.9180 -1.4271 2.8109 -1.2321 -5.7032 -3.4196 -7.3727 -9.4072 -0.3907 -6.9898 45.9159 -0.4943 -2.4249 19.4165 -0.0000 0.0000 0.0000 -76.5657 7.3324 32.5922 64.4204 -57.3772 -38.0425 -0.0000 0.0000 -26.7590 20.3479 19.5873 7.0871 -7.1250 0.0000 -0.0000 -8.0095 50.5913 -1.1098 -0.0000 0.0000 0.0000 71.4135 -15.9872 5.8005 -26.0741 37.2818 -8.9325 0.0000 -0.0000 -13.5794 -19.4549 -23.7170 8.0863 7.1250 -0.0000 -0.0000 10.4190 -54.6594 -2.4926
-8.7507 19.5286 11.4678 3.6928 109.2170 8.9030 0.0000 0.0000 0.0000 -13.5991 -20.7603 -8.4224 5.8943 14.3251 44.5560 4.2067 -8.4638 -37.4431 2.1996 -9.2700 -26.6437 0.0000 0.0000 0.0000 16.6711 8.4290 -8.0105 -4.6908 -13.0269 39.4692 -0.2108 21.3334 -16.6136 -0.1613 -2.5874 7.1321 -6.3369 -1.6395 8.0046 -1.0536 -2.8591 -1.3738 2.8123 -1.2042 -5.6851 -3.5133 -7.4582 -9.4016 -0.3547 -7.1254 45.8199 -0.4843 -2.4941 19.3626 0.0000 0.0000 0.0000 -77.4906 8.0832 32.6955 64.3328 -57.3581 -37.9687 -0.0000 0.0000 -26.6014 19.1134 20.6494 6.9674 -7.1250 0.0000 -0.0000 -9.5719 51.4763 -1.5387 0.0000 0.0000 0.0000 72.1457 -16.1108 5.7562 -25.6129 36.8239 -8.6546 0.0000 -0.0000 -12.9578 -17.5174 -24.6287 7.4934 7.1250 -0.0000 -0.0000 12.8180 -55.1946 -3.2476
-8.6616 19.5127 11.7914 3.6229 109.4060 8.6663 0.0000 0.0000 0.0000 -13.6912 -20.8039 -8.3916 5.9653 14.3947 44.8424 4.1830 -8.3981 -37.3366 2.2069 -9.2843 -26.6887 0.0000 0.0000 0.0000 16.5835 8.3387 -8.2851 -4.8597 -13.2241 40.2131 -0.1808 21.2768 -16.3564 -0.1632 -2.6026 7.1743 -6.3760 -1.5818 8.0578 -1.0722 -2.7879 -1.3157 2.8071 -1.1697 -5.6598 -3.6135 -7.5437 -9.3937 -0.2942 -7.2709 45.7216 -0.4630 -2.5655 19.3097 0.0000 -0.0000 0.0000 -78.3185 8.7954 32.7980 64.1192 -57.3113 -37.7889 -0.0000 0.0000 -26.4523 17.8901 21.6881 6.8028 -7.1250 0.0000 -0.0000 -11.1641 52.3192 -2.0320 0.0000 -0.0000 0.0000 72.8799 -16.2640 5.7917 -25.2316 36.4397 -8.4271 0.0000 -0.0000 -12.4287 -15.7828 -25.4388 6.9224 7.1250 -0.0000 -0.0000 14.9988 -55.6489 -3.9843
-8.5718 19.4966 12.1151 3.5123 109.5640 8.3932 0.0000 0.0000 0.0000 -13.7872 -20.8159 -8.3615 6.0337 14.4609 45.1168 4.1577 -8.3451 -37.2211 2.2124 -9.2951 -26.7227 0.0000 0.0000 0.0000 16.4793 8.2551 -8.5583 -5.0289 -13.4163 40.9474 -0.1460 21.2316 -16.0679 -0.1661 -2.6257 7.2385 -6.4324 -1.5147 8.1056 -1.1109 -2.7056 -1.2525 2.7889 -1.1298 -5.6272 -3.7122 -7.6327 -9.3823 -0.2107 -7.4324 45.6250 -0.4338 -2.6402 19.2596 0.0000 0.0000 0.0000 -79.0505 9.4642 32.9018 63.7785 -57.2355 -37.5022 -0.0000 0.0000 -26.3044 16.6860 22.6863 6.5946 -7.1250 0.0000 -0.0000 -12.7692 53.1051 -2.5794 0.0000 0.0000 0.0000 73.6287 -16.4391 5.8877 -24.9191 36.1212 -8.2422 0.0000 -0.0000 -11.9914 -14.2948 -26.1436 6.4058 7.1250 -0.0000 -0.0000 16.9018 -56.0342 -4.6696
